<svg width="50" height="50" viewBox="0 0 50 50" fill="none" xmlns="http://www.w3.org/2000/svg">
<path d="M21.3204 29.9679C21.9965 30.4717 22.6738 30.9771 23.352 31.4821C22.6442 32.1802 21.9352 32.8792 21.2296 33.577C21.1638 33.6444 21.1026 33.7148 21.0381 33.7835L21.0722 33.3214C21.153 32.2044 21.235 31.0853 21.3203 29.9679L21.3204 29.9679ZM26.8832 20.1178C23.4436 22.2872 20.0039 24.463 16.5626 26.6311C16.4927 26.6748 16.4165 26.7085 16.3387 26.7439C16.7891 28.1848 17.24 29.6261 17.6892 31.0678C18.0102 32.0823 18.3433 33.0949 18.6472 34.1135C18.7725 34.5361 18.9898 34.7622 19.4482 34.6822C19.5751 32.9578 19.6971 31.2351 19.827 29.5099C19.842 29.3088 19.8657 29.1048 19.8903 28.9033C19.6959 28.7917 19.7812 28.5782 19.8487 28.5078C19.9673 28.3854 20.0864 28.2605 20.205 28.1365C20.2475 28.0969 20.2916 28.0569 20.3329 28.0178C20.3924 27.9558 20.4503 27.8937 20.5094 27.8321C20.7941 27.5669 21.0776 27.2972 21.3624 27.0311C21.5248 26.8779 21.6888 26.7239 21.852 26.5711C22.2937 26.1577 22.7346 25.7443 23.1842 25.3376C24.3266 24.2993 25.4923 23.2842 26.6368 22.2501C28.096 20.9299 29.552 19.6048 30.9974 18.2696C31.1035 18.1223 31.1722 17.9324 31.2655 17.77C31.0065 17.8046 30.7026 17.7617 30.4969 17.8829C29.2796 18.6081 28.0827 19.3621 26.8833 20.1177L26.8832 20.1178ZM50 25C50 38.8072 38.8072 50 25 50C11.1928 50 0 38.8072 0 25C0 11.1918 11.1918 0 25 0C38.8072 0 50 11.1928 50 25ZM36.163 15.04C36.1497 14.9446 36.1405 14.8468 36.1213 14.7527C35.9011 13.6915 35.3199 13.3709 34.2787 13.7273C34.1259 13.7785 33.9694 13.8122 33.8145 13.8543C33.2338 14.0941 32.6592 14.351 32.0702 14.5712C31.0939 14.9396 30.1076 15.2839 29.1231 15.6391C28.5227 15.8893 27.9265 16.1508 27.3208 16.3876C25.8029 16.9809 24.2825 17.5629 22.7622 18.1499C19.6336 19.3559 16.5044 20.5617 13.3733 21.7677C12.6701 22.0391 11.9611 22.2964 11.2655 22.5858C10.6539 22.8381 10.0294 23.0829 9.46614 23.4217C9.21677 23.5716 8.94199 23.9655 8.97072 24.2157C8.9982 24.468 9.38413 24.684 9.6206 24.9097C9.66348 24.9509 9.73718 24.9638 9.79921 24.9829C11.4578 25.4963 13.1164 26.0096 14.7763 26.5217C14.7671 26.6949 14.7871 26.8714 14.8412 27.0463L15.4445 28.9817L16.2376 31.5213C16.3308 31.816 16.4245 32.1054 16.5161 32.3951C16.7417 33.1025 16.9761 33.8331 17.1893 34.5479C17.6535 36.0991 18.9057 36.219 19.2788 36.219C19.3341 36.219 19.3932 36.2153 19.4519 36.2132C19.5094 36.2157 19.5664 36.2174 19.6231 36.2174C20.581 36.2174 21.1964 35.6899 21.5627 35.3739C21.6301 35.3148 21.6946 35.2607 21.7413 35.2249C21.817 35.1683 21.8882 35.1066 21.949 35.0379C21.9969 34.9884 22.0402 34.9372 22.0876 34.8881C22.1647 34.8023 22.2367 34.7216 22.3008 34.6583C22.8578 34.1067 23.4133 33.5571 23.9715 33.0067L24.6326 32.3544C24.7259 32.4189 24.8187 32.4826 24.9124 32.5467C26.417 33.6699 27.9191 34.7986 29.4291 35.916C30.556 36.749 31.3437 36.5329 31.8891 35.2598C32.1214 34.1862 32.3521 33.11 32.5827 32.0387C32.7938 30.9675 33.0028 29.8993 33.2117 28.8302C33.3462 28.2428 33.4786 27.6537 33.611 27.0671C33.9632 25.4127 34.3146 23.7566 34.6651 22.1012C34.7792 21.5729 34.8908 21.0454 35.004 20.5171C35.0315 20.3918 35.0644 20.2657 35.0893 20.1395C35.4486 18.4401 35.8058 16.7406 36.163 15.04L36.163 15.04Z" fill="white"/>
</svg>
