<svg width="50" height="50" viewBox="0 0 50 50" fill="none" xmlns="http://www.w3.org/2000/svg">
<path fill-rule="evenodd" clip-rule="evenodd" d="M24.999 50C38.8061 50 49.999 38.8071 49.999 25C49.999 11.1929 38.8061 0 24.999 0C11.1919 0 -0.000976562 11.1929 -0.000976562 25C-0.000976562 38.8071 11.1919 50 24.999 50ZM36.3635 23.1579C34.6085 22.8295 32.9469 23.0068 31.2684 23.5166C35.2369 18.3218 33.4735 12.3015 30.5005 9.38415C28.89 7.78907 26.8039 6.76185 24.5576 6.45789C22.3114 6.15392 20.0272 6.58974 18.0507 7.69941C14.0592 9.91181 11.9443 14.6954 12.9933 19.1716C13.6951 22.1414 15.3516 24.4282 17.9961 25.9546C20.6407 27.4809 23.4647 27.7012 26.4408 26.8305C23.7343 30.7518 23.3032 34.7496 25.6415 38.8544C27.1972 41.584 29.6278 43.1838 32.7497 43.8132C33.714 38.3074 34.6697 32.8428 35.6252 27.3792C35.8713 25.9723 36.1174 24.5654 36.3635 23.1579Z" fill="white"/>
</svg>
