<svg width="50" height="50" viewBox="0 0 50 50" fill="none" xmlns="http://www.w3.org/2000/svg">
<path d="M49.9991 24.9738C50.1146 38.7266 38.9782 49.8721 24.9966 49.9944C11.4385 50.1167 0.114128 38.9237 0.000860757 25.2909C-0.112406 11.4565 10.9674 0.102641 24.6794 0.000700777C38.6973 -0.101239 49.8836 10.9309 49.9991 24.9738ZM12.6596 26.0725C12.8521 25.8255 13.0175 25.633 13.1579 25.4246C14.2 23.8819 13.4252 21.5214 11.6605 21.2949C10.0861 21.0683 8.46416 21.2405 6.79687 21.2405V29.2439H8.83567V26.6093H10.7816C11.2211 27.5155 11.6538 28.3967 12.0638 29.2371H14.3518C13.7469 28.1067 13.2032 27.0919 12.6596 26.0725ZM31.6363 29.2847C32.769 29.2847 33.8608 29.3572 34.9437 29.2643C36.3165 29.1465 37.1728 28.0954 37.2203 26.6614C37.2974 24.4165 36.6359 23.2363 35.1204 22.9304C34.8952 22.8981 34.6682 22.8807 34.4408 22.8783L33.5754 22.824V20.7852L31.6363 21.0683V29.2847ZM43.305 26.598C43.305 25.9456 43.373 25.4314 43.305 24.9398C43.0785 23.5806 41.896 22.7696 40.3601 22.8421C38.8808 22.9101 37.8478 23.8388 37.7527 25.2275C37.721 25.7639 37.721 26.3017 37.7527 26.8381C37.8093 28.1498 38.6271 29.0786 39.9591 29.3799C41.2277 29.6676 42.7387 29.0401 43.3232 27.9459L42.1361 27.1847C41.4565 27.6695 40.7769 27.9821 40.0452 27.5812C39.8028 27.4498 39.6986 27.0647 39.5332 26.7951L39.7054 26.6093L43.305 26.598ZM28.8635 22.9554C28.8635 24.0155 28.8635 24.9942 28.8635 25.9841C28.8635 27.2527 28.671 27.6242 28.0163 27.6061C27.3616 27.588 27.2076 27.2323 27.2076 25.9433C27.2076 24.9624 27.2076 23.9838 27.2076 22.9803H25.2752C25.2752 24.4709 25.2186 25.8844 25.2933 27.2844C25.3568 28.4669 26.0183 29.1828 27.1849 29.3413C27.8826 29.4164 28.5878 29.3789 29.2735 29.2303C29.659 29.1716 30.0125 28.9818 30.2745 28.693C30.5365 28.4042 30.691 28.034 30.712 27.6446C30.8004 26.1042 30.7392 24.5547 30.7392 22.9531L28.8635 22.9554ZM14.4016 22.9554C14.4016 24.5026 14.3359 25.9456 14.422 27.3796C14.4922 28.5349 15.2081 29.176 16.3792 29.3957C17.7384 29.6472 19.0727 29.2213 19.5779 28.365C19.6697 28.2261 19.7378 28.073 19.7795 27.9119C20.0785 26.2673 19.9222 24.6181 19.9041 22.9893H17.9876C17.9876 24.1016 17.9876 25.1437 17.9876 26.1857C17.9876 27.2776 17.7611 27.6559 17.1223 27.6287C16.5288 27.6038 16.3317 27.2527 16.3271 26.2039C16.3226 25.155 16.3271 24.0767 16.3271 22.9667L14.4016 22.9554ZM21.3449 22.7855L20.5746 23.012V24.566L21.3698 24.8175V29.3255H23.3202V24.7246L24.6658 24.6V22.9644L23.3066 22.8217V20.8418L21.3494 21.0933L21.3449 22.7855Z" fill="white"/>
<path d="M8.83496 24.8129V22.9395C9.47152 22.9395 10.0809 22.8942 10.6812 22.9531C10.8023 22.9568 10.9213 22.9854 11.0308 23.0372C11.1403 23.089 11.238 23.1627 11.3177 23.2539C11.3974 23.3451 11.4575 23.4518 11.4941 23.5672C11.5308 23.6827 11.5432 23.8044 11.5307 23.9249C11.5366 24.0387 11.5191 24.1525 11.4793 24.2593C11.4395 24.3661 11.3782 24.4636 11.2992 24.5457C11.2202 24.6279 11.1252 24.693 11.0201 24.737C10.915 24.781 10.802 24.803 10.688 24.8016C10.1058 24.8514 9.51456 24.8129 8.83496 24.8129Z" fill="white"/>
<path d="M33.625 27.4755V24.7707C34.1913 24.6053 34.8664 24.5238 35.059 25.0629C35.2732 25.7157 35.2889 26.4174 35.1043 27.0791C34.9321 27.6658 34.2457 27.5593 33.625 27.4755Z" fill="white"/>
<path d="M41.4293 25.1148H39.6442C39.6012 24.4828 39.9455 24.2336 40.4756 24.2087C41.0442 24.1861 41.4565 24.3877 41.4293 25.1148Z" fill="white"/>
</svg>
